<svg width="160" height="28" viewBox="0 0 160 28" fill="none" xmlns="http://www.w3.org/2000/svg">
<g clip-path="url(#clip0_59155_15860)">
<path d="M115.591 5.39771V22.0849H125.16V20.1032H118.557V5.39771H115.591Z" fill="#DA291C"/>
<path d="M19.4153 5.41162C20.3341 5.41162 21.1611 5.44949 21.8306 5.68932C23.7864 6.39619 25.086 7.86043 25.086 10.1704C25.086 12.19 23.7864 13.8688 21.9618 14.5757L27.1206 22.0989H23.4451L18.969 15.2952H15.8973V22.0989H12.7207V5.41162H19.4021H19.4153ZM15.9105 13.3766H18.7196C20.6754 13.3766 21.7649 12.3415 21.7649 10.2083C21.7649 9.0091 21.4105 7.11569 18.9296 7.11569H15.9236V13.3766H15.9105Z" fill="#DA291C"/>
<path d="M5.76257 5.41139C6.72081 5.41139 7.44278 5.37352 8.02035 5.46188C10.7507 5.87843 12.2734 7.78446 12.2734 10.6119C12.2734 12.4549 11.3282 13.8181 9.97621 14.7648C8.95233 15.4843 7.53466 15.7241 5.81508 15.7241H3.15038V22.0986H0V5.41139H5.76257ZM6.01198 13.8939C8.66355 13.8181 9.07047 11.8616 9.07047 10.4479C9.07047 7.50676 7.32464 7.15332 5.80195 7.15332H3.13725V13.9065H6.01198V13.8939Z" fill="#DA291C"/>
<path d="M37.5034 22.0976C38.4616 21.6431 39.4986 20.8858 40.0106 20.2546H43.8829C45.3793 20.2546 46.5345 19.8002 47.4402 19.1817C49.1598 17.9952 50.1443 15.9882 50.1443 13.2995C50.1443 10.9517 48.7266 8.67961 47.4402 8.02323C46.0619 7.31636 45.8782 7.19013 43.8173 7.19013H40.7063V15.9503C40.7063 17.8185 40.3125 19.1438 39.1442 20.2673C37.7265 21.6431 35.5475 22.4384 33.2372 22.4384C28.3542 22.4384 25.4663 20.242 25.4663 16.3416V5.39771H28.4198V15.9629C28.4198 16.7582 28.4986 17.4145 28.6429 17.9194C29.1024 19.4215 30.9663 20.3809 33.2372 20.3809C36.1251 20.3809 37.6347 18.8409 37.6347 16.0008V5.39771H44.9462C46.482 5.39771 47.8078 5.59967 48.8316 6.04146C51.6407 7.24062 53.5178 9.71468 53.5178 13.5015C53.5178 17.7049 50.8925 22.0976 43.8042 22.0976H37.5296H37.5034Z" fill="#DA291C"/>
<path d="M98.541 5.38672H95.4563V22.074H98.541V5.38672Z" fill="#DA291C"/>
<path d="M80.0714 7.27849H86.2015V22.0849H89.2862V7.27849H94.9307V5.39771H77.7611V17.7049L67.4042 5.41033H64.792V20.141H56.4173V14.4229H63.6369V12.4917H56.4173V7.228H64.0044V5.41033H53.385V22.0976H67.1154V9.87877L77.5773 22.0976H80.0714V7.27849Z" fill="#DA291C"/>
<path d="M108.373 5.38672L115.697 22.074H112.35L110.486 17.6434H103.174L101.232 22.074H98.4751L106.023 5.38672H108.373ZM104.001 15.7374H109.685L106.81 9.08518L104.001 15.7374Z" fill="#DA291C"/>
<path d="M138.59 0.704029C138.905 0.704029 138.839 1.17107 139.509 1.17107C139.889 1.17107 139.942 0.981729 140.401 0.981729C141.714 0.981729 142.2 2.50908 143.118 2.50908C143.539 2.50908 143.578 2.244 144.024 2.244C144.195 2.244 144.497 2.34498 144.615 2.45859C144.733 2.57219 144.996 2.78678 145.665 4.51609C145.731 4.70543 145.639 4.78117 145.534 4.78117C145.429 4.78117 145.232 4.69281 144.759 4.22577C144.497 3.97331 144.274 4.08692 143.132 3.39267C142.593 3.0771 142.081 2.59744 141.504 2.39547C140.926 2.18089 139.955 2.10515 139.587 2.01679C139.115 1.91581 138.354 1.56237 138.354 1.0196C138.354 0.842879 138.459 0.691406 138.577 0.691406" fill="#5B6770"/>
<path d="M145.115 0.500488C145.378 0.500488 145.588 0.891793 145.877 1.15687C146.52 1.77538 147.544 1.38408 148.318 2.1162C148.515 2.30554 148.673 2.75996 148.673 3.20175C148.673 3.64355 148.568 4.08534 148.345 4.08534C147.793 4.08534 148.148 3.23962 147.045 2.59586C145.942 1.96472 145.759 1.93948 145.299 1.49768C144.84 1.04327 144.827 0.87917 144.827 0.765565C144.827 0.651961 144.919 0.500488 145.129 0.500488" fill="#5B6770"/>
<path d="M150.101 2.49585C150.377 2.49585 150.298 2.86191 150.6 3.10174C150.902 3.35419 151.099 3.26584 151.519 3.66976C151.703 3.84648 151.755 3.97271 151.755 4.0232C151.755 4.07369 151.65 4.70483 150.968 4.70483C150.81 4.70483 150.705 4.66696 150.587 4.45237C150.429 4.14943 150.495 3.70763 150.154 3.31633C149.852 2.97551 149.812 2.95027 149.812 2.7483C149.812 2.54634 150.009 2.49585 150.101 2.49585Z" fill="#5B6770"/>
<path d="M151.192 5.76479C152.045 6.00462 152.479 6.33282 152.479 6.83772C152.479 7.34263 152.269 7.3805 152.085 7.63296C151.953 7.8223 151.822 8.07475 151.835 8.85736C151.835 9.00883 151.783 9.09719 151.665 9.09719C151.533 9.09719 151.481 9.0467 151.481 8.92047C151.481 8.84474 151.533 8.79425 151.533 8.73113C151.533 8.6554 151.56 8.28934 151.284 8.06213C150.51 7.39312 146.663 6.92608 144.222 6.92608C141.268 6.92608 138.893 7.53197 138.236 7.53197C137.029 7.53197 136.464 6.95133 136.464 6.52216C136.464 6.09298 136.727 6.01725 136.727 5.80266C136.727 5.58807 136.648 5.56283 136.648 5.38611C136.648 5.20939 136.805 4.85596 136.95 4.85596C137.173 4.85596 137.147 5.08317 137.357 5.44922C137.632 5.89102 138.184 6.47167 139.247 6.47167C140.192 6.47167 140.993 6.13085 142.384 5.82791C144.091 5.44922 145.443 5.27251 146.782 5.27251C147.412 5.27251 149.709 5.29775 151.179 5.75217" fill="#DA291C"/>
<path d="M151.481 10.3833C151.665 10.3833 151.783 10.4338 151.783 10.5474C151.783 10.661 151.586 10.661 151.481 10.6736C151.363 10.6989 150.641 10.8251 150.313 11.3174C150.26 11.4057 150.313 11.4689 150.378 11.5067C150.444 11.532 151.284 11.9359 151.284 12.2262C151.284 12.5165 150.641 12.8069 150.444 12.8069C150.247 12.8069 150.181 12.5797 150.181 12.5418C150.181 12.466 150.365 12.3651 150.365 12.2893C150.365 12.201 150.208 12.1 150.116 12.1C150.024 12.1 149.984 12.1379 149.932 12.3398C149.879 12.5544 149.696 13.3749 149.656 13.8798C149.617 14.3973 149.446 15.6722 149.446 15.8489C149.446 16.013 149.42 16.4675 149.039 16.7325C148.659 16.985 148.33 17.1617 148.33 17.1617C148.33 17.1617 148.186 17.2501 148.134 17.2501C148.094 17.2501 147.963 17.1365 147.805 17.0229C147.661 16.8966 147.49 16.8966 147.385 16.8966C147.188 16.8966 146.808 17.1869 146.519 17.1869C146.23 17.1869 145.653 16.884 145.653 16.7073C145.653 16.6568 145.771 16.6063 145.797 16.6063C145.928 16.6063 146.138 16.7452 146.414 16.7452C146.69 16.7452 146.926 16.5179 147.28 16.5179C147.49 16.5179 147.95 16.6189 148.33 16.6189C148.711 16.6189 148.842 16.5306 148.908 16.4296C148.96 16.316 149.092 16.1898 149.092 15.7732C149.092 15.3567 148.816 13.9934 148.816 13.1477C148.816 12.302 148.974 11.5825 149.407 11.1659C149.84 10.7494 150.785 10.4085 151.455 10.4085" fill="#5B6770"/>
<path d="M152.019 12.7959C152.124 12.7959 152.242 12.9221 152.242 13.2629C152.242 13.6038 151.979 15.9011 151.336 17.5042C150.706 19.0946 150.522 19.1073 149.958 20.0287C149.407 20.9376 148.96 21.9221 148.357 22.5028C148.133 22.73 147.779 22.9951 146.952 22.9951C146.125 22.9951 144.93 22.8183 143.592 22.3134C142.253 21.7833 140.914 21.0259 140.113 20.2559C139.995 20.1423 140.061 20.0413 140.271 20.1423C140.467 20.2559 141.557 21.0638 143.644 21.6697C145.154 22.1115 145.574 22.1115 146.217 22.1115C146.821 22.1115 147.477 22.2124 148.252 21.4677C149.013 20.7356 149.656 19.4859 149.932 19.0063C150.207 18.5266 150.759 17.6809 151.271 16.1409C151.783 14.5883 151.888 13.73 151.94 13.0484C151.94 12.8969 151.966 12.7959 152.045 12.7959" fill="#5B6770"/>
<path d="M146.821 17.845C147.11 17.845 147.359 18.2489 147.688 18.2489C148.016 18.2489 148.108 17.8955 148.291 17.8955C148.475 17.8955 148.541 18.2868 148.606 18.4256C148.672 18.5771 148.725 18.6402 148.725 18.6907C148.725 18.7159 148.646 18.7791 148.567 18.7791C148.488 18.7791 148.344 18.6402 148.003 18.6402C147.74 18.6402 147.543 18.8043 147.53 18.8422C147.517 18.88 147.464 18.8674 147.412 18.8422C147.307 18.7791 147.084 18.4382 146.729 18.4382C146.532 18.4382 146.27 18.5645 145.994 18.7286C145.719 18.8927 145.509 18.9431 145.285 18.9431C145.075 18.9431 144.787 18.8674 144.787 18.7286C144.787 18.6402 144.905 18.5897 144.997 18.5897C145.207 18.5897 145.417 18.6402 145.889 18.3751C146.217 18.1858 146.572 17.845 146.834 17.845" fill="#5B6770"/>
<path d="M145.887 19.2095C146.045 19.2095 146.307 19.5124 147.108 19.5124C147.909 19.5124 148.093 19.1716 148.263 19.1716C148.355 19.1716 148.368 19.2726 148.368 19.3105C148.368 19.3483 148.079 20.3077 147.266 20.3077C146.793 20.3077 146.281 19.9164 146.097 19.7397C145.913 19.5629 145.782 19.3862 145.782 19.3105C145.782 19.2347 145.848 19.2095 145.887 19.2095Z" fill="#5B6770"/>
<path d="M144.496 11.1034C145.048 11.1034 146.281 11.2297 146.281 11.5326C146.281 11.7093 145.73 11.5326 145.31 11.5326C144.89 11.5326 144.838 11.5452 144.838 11.5831C144.838 11.6084 144.838 11.6336 144.877 11.6588C144.916 11.6967 145.192 11.987 145.192 12.0628C145.192 12.3783 144.352 12.7065 144.155 12.7065C144.037 12.7065 143.814 12.5803 143.814 12.4415C143.814 12.3405 144.26 12.2395 144.26 12.1385C144.26 12.0375 143.997 11.8229 143.761 11.8229C143.525 11.8229 142.803 12.3152 142.711 12.3152C142.606 12.3152 142.593 12.2521 142.593 12.1638C142.593 12.1006 142.658 11.9618 142.658 11.8987C142.658 11.6841 142.501 11.6967 142.501 11.5326C142.501 11.4316 142.632 11.2675 143.341 11.1792C144.05 11.0908 144.221 11.0908 144.496 11.0908" fill="#5B6770"/>
<path d="M144.17 9.61499C144.735 9.61499 145.942 9.70335 146.126 9.74122C146.323 9.77909 146.362 9.85482 146.362 9.90531C146.362 9.99367 146.297 10.0063 146.074 10.0063C145.667 10.0063 144.63 10.0063 143.567 10.3219C141.899 10.8141 141.663 11.2812 141.401 11.2812C141.322 11.2812 141.177 11.1802 141.177 11.0792C141.177 10.9782 141.348 10.7384 141.348 10.5743C141.348 10.4355 141.217 10.2966 141.217 10.2209C141.217 9.93056 142.608 9.61499 144.157 9.61499" fill="#5B6770"/>
<path d="M158.817 9.12339C159.657 9.12339 159.998 9.91862 159.998 10.8653C159.998 11.0168 159.933 11.2566 159.788 11.2566C159.604 11.2566 159.854 10.7265 159.342 10.7265C159.211 10.7265 158.987 10.8527 158.777 11.042C158.581 11.244 157.333 12.8471 156.428 15.5105C155.981 16.8485 155.771 17.669 155.771 18.3885C155.771 18.8681 155.916 19.2216 155.916 19.3857C155.916 19.6886 155.588 19.4866 155.535 19.3983C155.417 19.1963 155.194 18.6157 155.194 17.8204C155.194 17.0252 155.535 15.0308 156.191 13.0112C156.533 11.9004 157.53 9.09814 158.817 9.09814" fill="#5B6770"/>
<path d="M156.349 22.0098C156.454 22.0098 156.546 22.0603 156.546 22.1107C156.546 22.2117 156.126 22.5525 155.942 22.7419C155.667 23.0322 155.588 23.5119 155.339 23.5119C155.26 23.5119 155.207 23.4235 155.207 23.3604C155.207 23.2973 155.234 23.2342 155.234 23.1837C155.234 22.9438 154.918 23.007 154.918 22.8176C154.918 22.6788 155.378 22.3884 155.575 22.2748C155.759 22.1612 156.179 22.0098 156.349 22.0098Z" fill="#5B6770"/>
<path d="M156.009 23.9167C156.14 23.9167 156.245 23.9672 156.245 24.0177C156.245 24.1313 155.747 24.409 155.655 24.51C155.563 24.5984 155.051 25.2548 154.972 25.6208C154.893 25.9995 154.775 26.1131 154.657 26.1131C154.421 26.1131 154.565 25.747 154.394 25.6208C154.263 25.5325 153.935 25.5703 153.935 25.3052C153.935 25.1285 154.237 24.8508 154.526 24.5984C154.815 24.3459 155.405 23.9294 156.022 23.9294" fill="#5B6770"/>
<path d="M154.016 20.3931C154.134 20.3931 154.239 20.4436 154.291 20.5572C154.357 20.6581 154.331 20.7213 154.436 20.8349C154.554 20.9358 154.921 20.9863 154.921 21.1631C154.921 21.3398 154.711 21.3398 154.62 21.4029C154.528 21.466 154.239 21.5922 154.029 21.9457C153.819 22.2991 153.701 22.7661 153.661 23.3973C153.622 24.0284 153.399 24.6469 153.071 25.1897C152.703 25.7577 152.178 26.1995 151.876 26.6792C151.627 27.0705 151.719 27.5123 151.469 27.5123C151.22 27.5123 151.167 26.8433 151.167 26.6034C151.167 26.3636 151.233 25.5684 151.876 24.9877C152.585 24.344 153.162 24.3061 153.162 23.2584C153.162 22.6147 153.084 22.4001 153.084 21.9962C153.084 21.5922 153.228 20.3931 154.003 20.3931" fill="#5B6770"/>
<path d="M125.766 6.00594C126.199 6.00594 125.727 6.17003 126.396 6.81379C126.711 7.11674 126.895 7.23034 127.63 7.23034C128.076 7.23034 128.706 7.14198 130.308 6.46036C130.938 6.18266 131.949 5.89233 132.684 5.89233C133.629 5.89233 134.351 6.33413 134.876 6.70019C135.388 7.06625 136.018 7.58378 136.294 7.78574C136.569 7.98771 136.976 8.22754 137.134 8.29065C137.278 8.35377 137.317 8.44212 137.265 8.55573C137.212 8.68196 137.042 8.93441 136.989 8.99752C136.937 9.06064 136.753 9.149 136.648 9.18687C136.543 9.23736 136.123 9.38883 135.624 9.76751C135.125 10.1336 134.285 10.5754 133.261 10.5754C132.237 10.5754 130.675 10.1841 129.796 10.1841C129.428 10.1841 128.89 10.3734 128.51 10.7395C128.365 10.8909 128.234 11.1434 128.155 11.2317C128.05 11.3327 127.722 11.5221 127.604 11.5221C127.486 11.5221 127.276 11.459 127.276 11.3327C127.276 11.1055 127.774 11.0172 127.774 10.6385C127.774 10.2598 127.643 10.2472 127.643 10.0705C127.643 9.89374 127.788 9.57817 128.024 9.35096C128.523 8.8713 129.809 8.5936 130.964 8.5936C131.804 8.5936 133.432 8.93441 134.548 8.93441C135.02 8.93441 135.388 8.8713 135.598 8.78294C135.887 8.65671 135.821 8.49261 135.69 8.49261C135.559 8.49261 135.572 8.54311 135.257 8.54311C134.968 8.54311 134.285 8.39163 133.708 8.01295C133.13 7.64689 132.198 7.12936 131.305 7.12936C130.413 7.12936 129.77 7.44493 129.494 7.54591C128.838 7.78574 127.302 8.64409 126.475 8.64409C125.648 8.64409 124.69 8.25278 124.69 7.57116C124.69 6.88953 125.399 6.95264 125.399 6.56134C125.399 6.4856 125.359 6.43511 125.359 6.35937C125.359 6.28364 125.438 6.01856 125.727 6.01856" fill="#DA291C"/>
<path d="M135.858 11.7485C136.042 11.7485 136.016 11.9379 136.134 12.0641C136.252 12.1903 136.304 12.0389 136.462 12.203C136.619 12.367 136.541 12.4554 136.659 12.5564C136.764 12.6574 136.948 12.6447 136.961 12.7331C136.987 13.0992 136.816 13.6672 136.816 14.5508C136.816 15.1693 136.935 15.8762 137.145 16.5073C137.236 16.7598 137.04 16.8102 136.948 16.6335C136.278 15.447 135.688 13.6924 135.688 12.3292C135.688 12.001 135.74 11.7612 135.871 11.7612" fill="#5B6770"/>
<path d="M135.022 13.0613C135.1 13.0613 135.14 13.1118 135.14 13.2128C135.14 13.3137 134.851 14.2352 134.418 14.7653C133.985 15.3081 133.302 16.015 133.04 16.015C132.921 16.015 132.921 15.8888 132.908 15.8509C132.882 15.8004 132.803 15.712 132.974 15.5732C133.145 15.447 133.158 15.3712 133.158 15.2829C133.158 15.1945 133.092 15.0809 133.092 15.0052C133.092 14.9294 133.158 14.7527 133.263 14.7022C133.368 14.6391 134.024 14.3236 134.405 13.8818C134.772 13.4526 134.89 13.0613 135.022 13.0613Z" fill="#5B6770"/>
<path d="M135.401 21.2919C135.48 20.5851 135.559 19.8151 135.611 19.0956C136.058 19.2976 136.399 19.55 136.399 20.0802C136.399 20.7113 135.664 21.1657 135.401 21.2919ZM135.677 17.9469C135.677 17.8333 135.677 17.7197 135.677 17.6187C135.677 16.1292 135.349 15.1699 135.126 15.1699C134.824 15.1699 134.469 16.6342 134.325 17.4041C133.826 17.2653 133.485 17.2274 133.196 17.2274C132.422 17.2274 132.264 17.3915 132.264 17.5809C132.264 17.7702 132.435 18.0605 132.632 18.2499C133.104 18.7043 133.642 18.6917 134.167 18.7169C134.089 19.6384 133.997 20.8249 133.997 21.2541C133.997 21.3803 133.997 21.5949 134.01 21.8726C133.485 22.1377 132.605 22.6047 132.303 22.8824C131.883 23.299 131.831 23.5262 131.831 23.8165C131.831 24.8263 132.763 24.7758 132.763 25.4701C132.763 25.7351 132.579 26.0128 132.802 26.0128C133.078 26.0128 133.301 25.5079 133.301 25.1924C133.301 24.8768 133.025 24.3719 133.025 24.0437C133.025 23.7155 133.143 23.3621 133.616 22.9076C133.734 22.794 133.865 22.7057 134.023 22.6173C134.062 23.5135 134.102 24.5486 134.128 24.8011C134.154 25.205 134.18 26.1643 134.377 26.1643C134.574 26.1643 134.968 24.3214 135.152 23.0339C135.191 22.7436 135.244 22.3901 135.296 21.9988C135.493 21.8978 135.703 21.7969 135.887 21.6832C136.793 21.1531 137.396 20.5346 137.396 19.8277C137.396 18.9694 136.57 18.414 135.651 17.9722" fill="#5B6770"/>
</g>
<defs>
<clipPath id="clip0_59155_15860">
<rect width="160" height="27" fill="white" transform="translate(0 0.5)"/>
</clipPath>
</defs>
</svg>
